<?xml version="1.0" encoding="UTF-8" standalone="no"?><!DOCTYPE svg PUBLIC "-//W3C//DTD SVG 1.1//EN" "http://www.w3.org/Graphics/SVG/1.1/DTD/svg11.dtd"><svg width="100%" height="100%" viewBox="0 0 210 207" version="1.1" xmlns="http://www.w3.org/2000/svg" xmlns:xlink="http://www.w3.org/1999/xlink" xml:space="preserve" style="fill-rule:evenodd;clip-rule:evenodd;stroke-linejoin:round;stroke-miterlimit:1.41421;"><g><path d="M21.929,40.626c19.165,-24.71 49.139,-40.626 82.801,-40.626c33.661,0 63.635,15.916 82.8,40.626c-51.509,-35.132 -105.767,-36.894 -165.601,0Zm56.886,165.597c-45.285,-11.545 -78.815,-52.635 -78.815,-101.493c0,-14.225 2.842,-27.791 7.988,-40.161c-2.325,58.909 20.086,106.676 70.827,141.654Zm51.829,0c49.175,-31.452 73.773,-78.631 70.827,-141.654c5.146,12.37 7.988,25.936 7.988,40.161c0,48.858 -33.53,89.948 -78.815,101.493Z" style="fill:#3b3b3b;"/><path d="M77.466,128.776l3.553,18.649c2.131,1.184 5.032,2.22 8.702,3.108c3.671,0.888 7.282,1.332 10.835,1.332c3.552,0 6.986,-0.444 10.301,-1.332c3.316,-0.888 6.216,-2.161 8.703,-3.818c2.487,-1.658 4.47,-3.641 5.95,-5.95c1.48,-2.309 2.22,-4.944 2.22,-7.904c0,-3.434 -0.947,-6.305 -2.842,-8.614c-1.894,-2.309 -4.351,-4.322 -7.37,-6.039c-3.02,-1.717 -6.424,-3.226 -10.213,-4.529c-3.789,-1.302 -7.637,-2.664 -11.545,-4.085c-4.144,-1.776 -8.14,-3.582 -11.988,-5.417c-3.849,-1.835 -7.283,-4.085 -10.302,-6.749c-3.019,-2.664 -5.417,-5.891 -7.193,-9.68c-1.776,-3.789 -2.664,-8.466 -2.664,-14.031c0,-5.921 1.154,-11.071 3.463,-15.452c2.309,-4.381 5.388,-7.993 9.236,-10.835c3.848,-2.841 8.348,-4.943 13.498,-6.305c5.151,-1.362 10.568,-2.042 16.252,-2.042c2.605,0 5.387,0.177 8.347,0.532c2.961,0.356 5.861,0.8 8.703,1.333c2.842,0.532 5.506,1.124 7.993,1.776c2.486,0.651 4.618,1.213 6.394,1.687l5.683,1.776l-0.888,30.194l-11.544,0l-6.039,-19.004c-3.316,-1.066 -6.601,-1.836 -9.858,-2.309c-3.256,-0.474 -6.601,-0.711 -10.035,-0.711c-3.433,0 -6.542,0.444 -9.324,1.332c-2.783,0.888 -5.151,2.102 -7.105,3.641c-1.953,1.54 -3.463,3.256 -4.529,5.151c-1.065,1.894 -1.598,3.848 -1.598,5.861c0.118,4.973 1.776,8.881 4.973,11.722c3.197,2.842 7.164,5.27 11.9,7.282c4.736,2.013 9.857,3.908 15.363,5.684c5.506,1.776 10.598,3.996 15.275,6.66c4.677,2.665 8.584,6.128 11.722,10.391c3.138,4.262 4.707,9.827 4.707,16.695c0,6.157 -1.184,11.604 -3.553,16.34c-2.368,4.736 -5.624,8.733 -9.768,11.989c-4.144,3.256 -9.058,5.743 -14.742,7.46c-5.683,1.716 -11.781,2.575 -18.294,2.575c-2.605,0 -5.417,-0.178 -8.436,-0.533c-3.02,-0.355 -5.98,-0.799 -8.881,-1.332c-2.901,-0.533 -5.595,-1.125 -8.081,-1.776c-2.487,-0.651 -4.559,-1.273 -6.216,-1.865l-4.974,-1.776l0,-31.082l14.209,0Z" style="fill:#eb8748;fill-rule:nonzero;"/></g></svg>